#!OML:ASF H:\Punching\Project 1\Capture day 1\Session 1\female.ASF
:FULLY-SPECIFIED
:DEGREES
2200
root 0.209027 15.7761 0.753135 7.31763 -17.0764 6.22159
lowerback 1.3946 -3.58424 -8.78443
upperback -6.1661 -5.31578 -0.375801
thorax -6.53258 -2.17655 4.84081
lowerneck -12.8939 -5.71166 -1.26229
upperneck 25.2865 -7.74927 -0.783555
head 10.2002 -3.84445 -1.0417
rclavicle 2.82026e-015 9.93923e-017
rhumerus -42.1941 -14.6195 -64.3988
rradius 22.2533
rwrist 17.4881
rhand -8.711 -5.02326
rfingers 7.12502
rthumb 17.2246 -34.2799
lclavicle 2.82026e-015 9.93923e-017
lhumerus -53.8452 6.44941 80.1328
lradius 47.3637
lwrist -6.08165
lhand -4.40953 18.0541
lfingers 7.12502
lthumb 21.3607 46.8967
rfemur -33.7919 7.46639 4.58607
rtibia 36.6411
rfoot -20.2018 -12.8882
rtoes -5.57201
lfemur -9.22087 -6.10907 -29.8693
ltibia 12.2383
lfoot -10.127 22.1002
ltoes 6.39807
2201
root 0.180821 15.7712 0.795222 7.27516 -16.7679 6.23145
lowerback 1.27055 -3.61139 -8.71996
upperback -6.15988 -5.33369 -0.361342
thorax -6.4545 -2.19281 4.81105
lowerneck -12.8647 -5.76855 -1.36219
upperneck 25.4574 -7.80549 -0.814092
head 10.2601 -3.88241 -1.04672
rclavicle 8.40595e-014 2.31087e-015
rhumerus -42.4165 -15.0198 -63.8461
rradius 21.9532
rwrist 18.065
rhand -8.50046 -5.15998
rfingers 7.12502
rthumb 17.4272 -34.3988
lclavicle 8.40595e-014 2.31087e-015
lhumerus -53.8901 6.62736 80.009
lradius 46.6532
lwrist -6.37418
lhand -4.17179 18.0122
lfingers 7.12502
lthumb 21.589 46.8288
rfemur -33.4361 7.62762 4.67341
rtibia 36.24
rfoot -20.3702 -12.9379
rtoes -5.56741
lfemur -9.01936 -6.14669 -29.8404
ltibia 12.3324
lfoot -10.2948 21.923
ltoes 6.17744
2202
root 0.151422 15.7657 0.837844 7.22875 -16.469 6.24907
lowerback 1.14044 -3.63626 -8.66182
upperback -6.16182 -5.34899 -0.346927
thorax -6.38183 -2.20692 4.78447
lowerneck -12.8324 -5.82103 -1.45533
upperneck 25.6371 -7.85442 -0.85631
head 10.322 -3.91787 -1.05622
rclavicle 3.10446e-014 1.93815e-015
rhumerus -42.6337 -15.3275 -63.359
rradius 21.7184
rwrist 18.5589
rhand -8.27712 -5.31768
rfingers 7.12502
rthumb 17.6422 -34.5373
lclavicle 3.10446e-014 1.93815e-015
lhumerus -53.953 6.84203 79.8429
lradius 45.9691
lwrist -6.6785
lhand -3.93092 17.9669
lfingers 7.12502
lthumb 21.8203 46.7567
rfemur -33.0526 7.76076 4.78074
rtibia 35.9161
rfoot -20.4807 -13.0269
rtoes -5.60151
lfemur -8.8281 -6.17055 -29.8146
ltibia 12.458
lfoot -10.487 21.7394
ltoes 5.96194
2203
root 0.120767 15.759 0.881089 7.17798 -16.1826 6.27595
lowerback 1.00248 -3.65581 -8.60903
upperback -6.17196 -5.35756 -0.335534
thorax -6.31447 -2.217 4.75712
lowerneck -12.7931 -5.87255 -1.54393
upperneck 25.8217 -7.90153 -0.905849
head 10.3839 -3.95311 -1.06875
rclavicle 3.35853e-014 -1.98785e-015
rhumerus -42.8477 -15.5497 -62.9383
rradius 21.5456
rwrist 18.9548
rhand -8.03314 -5.48956
rfingers 7.12502
rthumb 17.877 -34.6879
lclavicle 3.35853e-014 -1.98785e-015
lhumerus -54.0318 7.0791 79.6363
lradius 45.3133
lwrist -6.97168
lhand -3.69296 17.9252
lfingers 7.12502
lthumb 22.0488 46.6883
rfemur -32.6361 7.86983 4.90341
rtibia 35.6596
rfoot -20.5645 -13.1424
rtoes -5.57105
lfemur -8.64632 -6.17949 -29.7934
ltibia 12.6148
lfoot -10.7043 21.5514
ltoes 5.74163
2204
root 0.0887972 15.7514 0.924912 7.12275 -15.9132 6.31403
lowerback 0.852811 -3.66932 -8.56384
upperback -6.18888 -5.35811 -0.329523
thorax -6.24888 -2.2226 4.7274
lowerneck -12.7454 -5.92294 -1.62617
upperneck 26.009 -7.94784 -0.959538
head 10.445 -3.98808 -1.08353
rclavicle -2.18694e-014 -3.43897e-014
rhumerus -43.054 -15.6863 -62.5924
rradius 21.4283
rwrist 19.2336
rhand -7.78384 -5.65233
rfingers 7.12502
rthumb 18.1168 -34.8286
lclavicle -2.18694e-014 -3.43897e-014
lhumerus -54.1336 7.33871 79.3881
lradius 44.6961
lwrist -7.24318
lhand -3.46391 17.8936
lfingers 7.12502
lthumb 22.2687 46.6306
rfemur -32.1907 7.96039 5.03652
rtibia 35.4628
rfoot -20.6346 -13.2772
rtoes -5.46007
lfemur -8.46678 -6.17855 -29.7784
ltibia 12.7875
lfoot -10.9377 21.3658
ltoes 5.51755
2205
root 0.0554091 15.7429 0.969316 7.06479 -15.6625 6.36281
lowerback 0.690264 -3.67582 -8.52698
upperback -6.21572 -5.3494 -0.328087
thorax -6.18781 -2.22281 4.69662
lowerneck -12.677 -5.97321 -1.7095
upperneck 26.1947 -7.99448 -1.01245
head 10.5017 -4.02362 -1.09717
rclavicle 5.09386e-014 1.37161e-014
rhumerus -43.258 -15.7505 -62.3076
rradius 21.3607
rwrist 19.4128
rhand -7.52813 -5.80422
rfingers 7.12502
rthumb 18.3628 -34.9575
lclavicle 5.09386e-014 1.37161e-014
lhumerus -54.264 7.60779 79.1047
lradius 44.1231
lwrist -7.46723
lhand -3.25742 17.8768
lfingers 7.12502
lthumb 22.4669 46.59
rfemur -31.7211 8.03952 5.17565
rtibia 35.3154
rfoot -20.6809 -13.4184
rtoes -5.28901
lfemur -8.28006 -6.16515 -29.7687
ltibia 12.9539
lfoot -11.1745 21.1817
ltoes 5.2851
2206
root 0.0205644 15.7341 1.0143 7.0052 -15.43 6.42055
lowerback 0.514045 -3.67628 -8.4974
upperback -6.25204 -5.33247 -0.330238
thorax -6.13015 -2.21828 4.66525
lowerneck -12.5849 -6.02234 -1.79819
upperneck 26.3757 -8.04026 -1.06013
head 10.5528 -4.0591 -1.10703
rclavicle -1.92883e-014 2.00773e-014
rhumerus -43.4567 -15.7176 -62.1025
rradius 21.3488
rwrist 19.4564
rhand -7.27922 -5.93826
rfingers 7.12502
rthumb 18.6023 -35.0688
lclavicle -1.92883e-014 2.00773e-014
lhumerus -54.4254 7.88744 78.7871
lradius 43.5999
lwrist -7.63225
lhand -3.07018 17.8798
lfingers 7.12502
lthumb 22.6466 46.5712
rfemur -31.2387 8.12141 5.31279
rtibia 35.2084
rfoot -20.6751 -13.5452
rtoes -5.0598
lfemur -8.0655 -6.14937 -29.7622
ltibia 13.0728
lfoot -11.3923 21.0068
ltoes 5.04029
2207
root -0.0157256 15.726 1.05988 6.94257 -15.2186 6.48633
lowerback 0.326874 -3.67092 -8.47597
upperback -6.29371 -5.30754 -0.334929
thorax -6.07278 -2.20927 4.63496
lowerneck -12.4859 -6.06925 -1.88801
upperneck 26.5563 -8.0831 -1.1073
head 10.6027 -4.09349 -1.11595
rclavicle 2.61588e-014 -1.0138e-014
rhumerus -43.6378 -15.6283 -61.9565
rradius 21.3739
rwrist 19.4139
rhand -7.04712 -6.05214
rfingers 7.12502
rthumb 18.8255 -35.1612
lclavicle 2.61588e-014 -1.0138e-014
lhumerus -54.607 8.17282 78.4426
lradius 43.124
lwrist -7.71684
lhand -2.91516 17.9109
lfingers 7.12502
lthumb 22.7954 46.5839
rfemur -30.7669 8.22409 5.43528
rtibia 35.1334
rfoot -20.5623 -13.6465
rtoes -4.78236
lfemur -7.79821 -6.13902 -29.7577
ltibia 13.097
lfoot -11.5673 20.8509
ltoes 4.78537
2208
root -0.0533343 15.7194 1.10615 6.87323 -15.0262 6.56104
lowerback 0.13526 -3.65883 -8.46052
upperback -6.34413 -5.27432 -0.34446
thorax -6.02354 -2.19534 4.60287
lowerneck -12.3547 -6.11553 -1.98461
upperneck 26.7239 -8.12648 -1.1459
head 10.6424 -4.12836 -1.11923
rclavicle 4.00303e-014 2.28602e-014
rhumerus -43.8122 -15.4875 -61.8646
rradius 21.4312
rwrist 19.2886
rhand -6.85091 -6.14315
rfingers 7.12502
rthumb 19.0142 -35.2338
lclavicle 4.00303e-014 2.28602e-014
lhumerus -54.8215 8.45977 78.0722
lradius 42.6972
lwrist -7.72654
lhand -2.78371 17.9751
lfingers 7.12502
lthumb 22.9215 46.6326
rfemur -30.3319 8.34477 5.53212
rtibia 35.0845
rfoot -20.2765 -13.7325
rtoes -4.56178
lfemur -7.45009 -6.14711 -29.7574
ltibia 12.9808
lfoot -11.6755 20.7243
ltoes 4.53129
